<mxfile host="app.diagrams.net" agent="Mozilla/5.0 (Macintosh; Intel Mac OS X 10_15_7) AppleWebKit/537.36 (KHTML, like Gecko) Chrome/128.0.0.0 Safari/537.36" version="24.7.10">
  <diagram name="Page-1" id="NWxOR2tQ2nLDY5IiJw2v">
    <mxGraphModel dx="954" dy="515" grid="1" gridSize="10" guides="1" tooltips="1" connect="1" arrows="1" fold="1" page="1" pageScale="1" pageWidth="850" pageHeight="1100" math="0" shadow="0">
      <root>
        <mxCell id="0" />
        <mxCell id="1" parent="0" />
        <mxCell id="BLaJh71h2JVCrHGViiBd-7" style="edgeStyle=orthogonalEdgeStyle;rounded=0;orthogonalLoop=1;jettySize=auto;html=1;exitX=1;exitY=0.5;exitDx=0;exitDy=0;" parent="1" source="JV3QutzyvqUY6ezrFtOC-1" target="JV3QutzyvqUY6ezrFtOC-5" edge="1">
          <mxGeometry relative="1" as="geometry" />
        </mxCell>
        <mxCell id="JV3QutzyvqUY6ezrFtOC-1" value="Trainer" style="ellipse;whiteSpace=wrap;html=1;" parent="1" vertex="1">
          <mxGeometry x="225" y="365" width="120" height="80" as="geometry" />
        </mxCell>
        <mxCell id="JV3QutzyvqUY6ezrFtOC-2" value="" style="endArrow=classic;html=1;rounded=0;entryX=0.5;entryY=1;entryDx=0;entryDy=0;exitX=0.5;exitY=0;exitDx=0;exitDy=0;" parent="1" target="JV3QutzyvqUY6ezrFtOC-1" edge="1">
          <mxGeometry width="50" height="50" relative="1" as="geometry">
            <mxPoint x="285" y="490" as="sourcePoint" />
            <mxPoint x="390" y="500" as="targetPoint" />
          </mxGeometry>
        </mxCell>
        <mxCell id="JV3QutzyvqUY6ezrFtOC-4" value="Recommendation" style="ellipse;whiteSpace=wrap;html=1;" parent="1" vertex="1">
          <mxGeometry x="390" y="260" width="120" height="80" as="geometry" />
        </mxCell>
        <mxCell id="JV3QutzyvqUY6ezrFtOC-5" value="Data + recommendation" style="shape=cylinder3;whiteSpace=wrap;html=1;boundedLbl=1;backgroundOutline=1;size=15;" parent="1" vertex="1">
          <mxGeometry x="390" y="370" width="120" height="70" as="geometry" />
        </mxCell>
        <mxCell id="JV3QutzyvqUY6ezrFtOC-8" value="" style="swimlane;startSize=0;" parent="1" vertex="1">
          <mxGeometry x="365" y="160" width="200" height="290" as="geometry">
            <mxRectangle x="395" y="680" width="50" height="40" as="alternateBounds" />
          </mxGeometry>
        </mxCell>
        <mxCell id="JV3QutzyvqUY6ezrFtOC-11" value="Reinforcer" style="ellipse;whiteSpace=wrap;html=1;" parent="JV3QutzyvqUY6ezrFtOC-8" vertex="1">
          <mxGeometry x="25" y="10" width="120" height="80" as="geometry" />
        </mxCell>
        <mxCell id="JV3QutzyvqUY6ezrFtOC-9" value="" style="endArrow=classic;html=1;rounded=0;entryX=0.5;entryY=1;entryDx=0;entryDy=0;exitX=0.5;exitY=0;exitDx=0;exitDy=0;exitPerimeter=0;" parent="1" source="JV3QutzyvqUY6ezrFtOC-5" target="JV3QutzyvqUY6ezrFtOC-4" edge="1">
          <mxGeometry width="50" height="50" relative="1" as="geometry">
            <mxPoint x="340" y="430" as="sourcePoint" />
            <mxPoint x="370" y="390" as="targetPoint" />
          </mxGeometry>
        </mxCell>
        <mxCell id="JV3QutzyvqUY6ezrFtOC-12" value="Application" style="text;html=1;align=center;verticalAlign=middle;whiteSpace=wrap;rounded=0;" parent="1" vertex="1">
          <mxGeometry x="430" y="130" width="60" height="30" as="geometry" />
        </mxCell>
        <mxCell id="JV3QutzyvqUY6ezrFtOC-13" value="Reinforce: API to update the score" style="text;html=1;align=center;verticalAlign=middle;whiteSpace=wrap;rounded=0;" parent="1" vertex="1">
          <mxGeometry x="580" y="190" width="140" height="30" as="geometry" />
        </mxCell>
        <mxCell id="JV3QutzyvqUY6ezrFtOC-18" value="Recommendation: API to return the recommendation column" style="text;html=1;align=center;verticalAlign=middle;whiteSpace=wrap;rounded=0;" parent="1" vertex="1">
          <mxGeometry x="580" y="280" width="170" height="30" as="geometry" />
        </mxCell>
        <mxCell id="BLaJh71h2JVCrHGViiBd-8" style="edgeStyle=orthogonalEdgeStyle;rounded=0;orthogonalLoop=1;jettySize=auto;html=1;exitX=0.5;exitY=1;exitDx=0;exitDy=0;entryX=0;entryY=0.5;entryDx=0;entryDy=0;" parent="1" source="BLaJh71h2JVCrHGViiBd-1" target="JV3QutzyvqUY6ezrFtOC-1" edge="1">
          <mxGeometry relative="1" as="geometry" />
        </mxCell>
        <mxCell id="BLaJh71h2JVCrHGViiBd-1" value="Reinforced learning" style="ellipse;whiteSpace=wrap;html=1;" parent="1" vertex="1">
          <mxGeometry x="110" y="170" width="120" height="80" as="geometry" />
        </mxCell>
        <mxCell id="BLaJh71h2JVCrHGViiBd-2" value="" style="endArrow=classic;html=1;rounded=0;entryX=1;entryY=0.5;entryDx=0;entryDy=0;exitX=0.005;exitY=0.169;exitDx=0;exitDy=0;exitPerimeter=0;" parent="1" source="JV3QutzyvqUY6ezrFtOC-8" target="BLaJh71h2JVCrHGViiBd-1" edge="1">
          <mxGeometry width="50" height="50" relative="1" as="geometry">
            <mxPoint x="360" y="280" as="sourcePoint" />
            <mxPoint x="420" y="290" as="targetPoint" />
          </mxGeometry>
        </mxCell>
        <mxCell id="BLaJh71h2JVCrHGViiBd-9" value="Feedback loop" style="text;strokeColor=none;fillColor=none;align=left;verticalAlign=middle;spacingLeft=4;spacingRight=4;overflow=hidden;points=[[0,0.5],[1,0.5]];portConstraint=eastwest;rotatable=0;whiteSpace=wrap;html=1;" parent="1" vertex="1">
          <mxGeometry x="240" y="280" width="80" height="30" as="geometry" />
        </mxCell>
        <mxCell id="BLaJh71h2JVCrHGViiBd-10" value="Trainer: generated the recommendation for each record" style="text;html=1;align=center;verticalAlign=middle;whiteSpace=wrap;rounded=0;" parent="1" vertex="1">
          <mxGeometry x="60" y="445" width="180" height="30" as="geometry" />
        </mxCell>
        <mxCell id="BLaJh71h2JVCrHGViiBd-11" value="Data in db = original data + Generated recommendation for each record + reinforced score for each record&amp;nbsp;" style="text;html=1;align=center;verticalAlign=middle;whiteSpace=wrap;rounded=0;" parent="1" vertex="1">
          <mxGeometry x="580" y="390" width="210" height="30" as="geometry" />
        </mxCell>
        <mxCell id="BLaJh71h2JVCrHGViiBd-12" value="user" style="shape=umlActor;verticalLabelPosition=bottom;verticalAlign=top;html=1;outlineConnect=0;" parent="1" vertex="1">
          <mxGeometry x="610" y="40" width="30" height="60" as="geometry" />
        </mxCell>
        <mxCell id="BLaJh71h2JVCrHGViiBd-14" value="" style="endArrow=classic;html=1;rounded=0;" parent="1" target="JV3QutzyvqUY6ezrFtOC-11" edge="1">
          <mxGeometry width="50" height="50" relative="1" as="geometry">
            <mxPoint x="600" y="60" as="sourcePoint" />
            <mxPoint x="588" y="108" as="targetPoint" />
          </mxGeometry>
        </mxCell>
        <mxCell id="BLaJh71h2JVCrHGViiBd-15" value="Likes/dislikes&amp;nbsp;&lt;div&gt;recommendation&lt;/div&gt;" style="edgeLabel;html=1;align=center;verticalAlign=middle;resizable=0;points=[];" parent="BLaJh71h2JVCrHGViiBd-14" vertex="1" connectable="0">
          <mxGeometry x="-0.1987" y="3" relative="1" as="geometry">
            <mxPoint y="1" as="offset" />
          </mxGeometry>
        </mxCell>
        <mxCell id="BLaJh71h2JVCrHGViiBd-20" value="" style="endArrow=classic;html=1;rounded=0;exitX=1;exitY=0;exitDx=0;exitDy=0;" parent="1" source="JV3QutzyvqUY6ezrFtOC-4" edge="1">
          <mxGeometry width="50" height="50" relative="1" as="geometry">
            <mxPoint x="370" y="240" as="sourcePoint" />
            <mxPoint x="610" y="120" as="targetPoint" />
          </mxGeometry>
        </mxCell>
        <mxCell id="BLaJh71h2JVCrHGViiBd-21" value="Shows users&lt;br&gt;&amp;nbsp;Recommendations" style="edgeLabel;html=1;align=center;verticalAlign=middle;resizable=0;points=[];" parent="BLaJh71h2JVCrHGViiBd-20" vertex="1" connectable="0">
          <mxGeometry x="-0.0126" y="-2" relative="1" as="geometry">
            <mxPoint x="2" y="42" as="offset" />
          </mxGeometry>
        </mxCell>
        <mxCell id="ERP19eNqCeFMC9Jlo5K3-1" value="&lt;span style=&quot;color: rgb(0, 0, 0); font-family: Helvetica; font-size: 12px; font-style: normal; font-variant-ligatures: normal; font-variant-caps: normal; font-weight: 400; letter-spacing: normal; orphans: 2; text-align: center; text-indent: 0px; text-transform: none; widows: 2; word-spacing: 0px; -webkit-text-stroke-width: 0px; white-space: normal; background-color: rgb(251, 251, 251); text-decoration-thickness: initial; text-decoration-style: initial; text-decoration-color: initial; display: inline !important; float: none;&quot;&gt;Reinforced learning : in our case simply adjust the weight of Neuron Network (considering the rewards) and retrain the model&lt;/span&gt;" style="text;whiteSpace=wrap;html=1;" parent="1" vertex="1">
          <mxGeometry x="110" y="110" width="250" height="70" as="geometry" />
        </mxCell>
        <mxCell id="935E9yF4RDMZdNX2uF5e-1" value="Data" style="shape=cylinder3;whiteSpace=wrap;html=1;boundedLbl=1;backgroundOutline=1;size=15;" parent="1" vertex="1">
          <mxGeometry x="255" y="480" width="60" height="80" as="geometry" />
        </mxCell>
        <mxCell id="935E9yF4RDMZdNX2uF5e-2" value="&lt;span style=&quot;color: rgb(0, 0, 0); font-family: Helvetica; font-size: 12px; font-style: normal; font-variant-ligatures: normal; font-variant-caps: normal; font-weight: 400; letter-spacing: normal; orphans: 2; text-align: center; text-indent: 0px; text-transform: none; widows: 2; word-spacing: 0px; -webkit-text-stroke-width: 0px; white-space: normal; background-color: rgb(251, 251, 251); text-decoration-thickness: initial; text-decoration-style: initial; text-decoration-color: initial; display: inline !important; float: none;&quot;&gt;Recommendation: think of the recommendations as classes or in our case, if the given record is subject to a fraud or not&lt;/span&gt;" style="text;whiteSpace=wrap;html=1;" parent="1" vertex="1">
          <mxGeometry x="390" y="480" width="180" height="40" as="geometry" />
        </mxCell>
      </root>
    </mxGraphModel>
  </diagram>
</mxfile>
